# xmcd CD database file
#
# Track frame offsets:
#	150
#	30616
#	40598
#	54954
#	70224
#	82368
#	92046
#	113092
#	144097
#	158321
#	168346
#	184760
#	195971
#	218720
#	234954
#	248082
#	257823
#
# Disc length: 3739 seconds
#
# Revision: 1
# Processed by: cddbd v1.4PL0 Copyright (c) Steve Scherf et al.
# Submitted via: CDex 1.50
#
DISCID=d10e9911
DTITLE=Various Artist - 96 Prosent Countryfest  CD2
DYEAR=2003
DGENRE=Country
TTITLE0=Diverse artister - Countryfest-medley nr.5
TTITLE1=Lillian Askeland - Jambalaya
TTITLE2=Bjørn Jens - Nå reiser e fra Norge
TTITLE3=Terje Sending - I made the highway my home
TTITLE4=Kniplia pukkverk - Jobb å få
TTITLE5=Bjøro Håland - Oksedragarsong
TTITLE6=Dag Rune Ellingsen - Look out Nashville
TTITLE7=Diverse artister - Countryfest-medley nr.6
TTITLE8=Somebody´s darling - Enough will be enough
TTITLE9=Ørnulf Holthe - Jernbaneslusk
TTITLE10=Stephen Ackless - Truck drivin´ Elvis
TTITLE11=Lars Bjune - Hvileløs tramp
TTITLE12=Tom Russel Band - Lord of the trains
TTITLE13=Casino Steel and Rita Eriksen - Broken rose
TTITLE14=Helge Borglund - Vandringsmann
TTITLE15=Lillian Askeland and Ottar Big Hand - Nå er det over
TTITLE16=Diverse artister - Countryfest-medley nr.7
EXTD=YEAR: 2003
EXTT0=
EXTT1=
EXTT2=
EXTT3=
EXTT4=
EXTT5=
EXTT6=
EXTT7=
EXTT8=
EXTT9=
EXTT10=
EXTT11=
EXTT12=
EXTT13=
EXTT14=
EXTT15=
EXTT16=
PLAYORDER=
